<svg xmlns="http://www.w3.org/2000/svg" xmlns:xlink="http://www.w3.org/1999/xlink" width="1920" zoomAndPan="magnify" viewBox="0 0 1440 809.999993" height="1080" preserveAspectRatio="xMidYMid meet" version="1.0"><defs><g/></defs><g fill="#ffffff" fill-opacity="1"><g transform="translate(81.000002, 416.267944)"><g><path d="M 7.011719 -151.957031 L 122.566406 -151.957031 C 117.96875 -145.871094 114.683594 -141.085938 112.714844 -137.597656 C 110.75 -134.109375 108.246094 -128.503906 105.203125 -120.785156 L 104.3125 -118.558594 C 99.414062 -128.652344 94.570312 -135.183594 89.78125 -138.152344 C 84.996094 -141.121094 76.925781 -142.605469 65.570312 -142.605469 L 59.222656 -142.496094 L 48.425781 -142.605469 L 44.308594 -142.71875 L 44.308594 -90.617188 L 51.097656 -90.617188 L 51.097656 -136.59375 L 54.328125 -136.707031 C 58.929688 -136.929688 63.824219 -137.039062 69.019531 -137.039062 C 84.160156 -137.039062 93.625 -133.105469 97.410156 -125.238281 C 93.773438 -128.726562 89.820312 -131.085938 85.554688 -132.308594 C 81.285156 -133.535156 74.699219 -134.144531 65.792969 -134.144531 C 62.601562 -134.144531 58.632812 -133.960938 53.882812 -133.589844 L 53.882812 -90.617188 L 70.691406 -90.617188 L 88.503906 -109.433594 L 88.503906 -62.785156 L 69.800781 -81.265625 L 44.308594 -81.265625 L 44.308594 -25.160156 L 58.558594 -10.6875 L 3.894531 -10.6875 L 22.042969 -25.160156 L 22.042969 -73.027344 C 16.328125 -73.027344 11.316406 -70.875 7.011719 -66.570312 L 4.898438 -68.910156 C 9.203125 -73.660156 14.917969 -76.035156 22.042969 -76.035156 L 22.042969 -81.265625 C 20.484375 -81.414062 19.371094 -81.488281 18.703125 -81.488281 C 11.800781 -81.488281 5.824219 -78.667969 0.777344 -73.027344 L 0 -74.808594 C 3.339844 -84.457031 10.6875 -89.726562 22.042969 -90.617188 L 22.042969 -137.597656 Z M 131.027344 -145.167969 C 120.414062 -132.773438 113.738281 -121.417969 110.992188 -111.101562 L 108.652344 -112.660156 C 111.472656 -124.3125 118.265625 -135.777344 129.023438 -147.058594 Z M 96.628906 -105.535156 L 96.628906 -57.445312 L 93.734375 -59.113281 L 93.734375 -107.207031 Z M 76.703125 -71.914062 L 53.882812 -71.914062 L 53.882812 -24.269531 L 73.472656 0 L 9.015625 0 L 6.234375 -3.003906 L 67.238281 -3.003906 L 51.097656 -22.933594 L 51.097656 -74.921875 L 73.472656 -74.921875 Z M 76.703125 -71.914062 "/></g></g></g><g fill="#ffffff" fill-opacity="1"><g transform="translate(206.685306, 416.267944)"><g><path d="M 4.5625 -151.957031 L 57.332031 -151.957031 L 42.414062 -136.816406 L 42.414062 -20.929688 L 56.441406 -9.128906 L 4.5625 -9.128906 L 20.039062 -21.929688 L 20.039062 -138.042969 Z M 62.339844 -145.613281 L 50.988281 -134.367188 L 50.988281 -20.929688 L 69.6875 0 L 11.800781 0 L 9.015625 -3.003906 L 63.121094 -3.003906 L 47.871094 -19.816406 L 47.871094 -135.371094 L 60.449219 -147.839844 Z M 62.339844 -145.613281 "/></g></g></g><g fill="#ffffff" fill-opacity="1"><g transform="translate(276.374398, 416.267944)"><g><path d="M 141.9375 -151.957031 L 117.449219 -135.925781 L 81.824219 -90.617188 L 122.566406 -23.710938 L 141.9375 -9.128906 L 84.496094 -9.128906 L 98.632812 -22.820312 L 73.25 -64.234375 L 41.859375 -23.710938 L 60.113281 0 L -0.777344 0 L -2.449219 -3.003906 L 54.214844 -3.003906 L 38.296875 -23.710938 L 71.691406 -67.015625 L 68.574219 -71.914062 L 32.171875 -25.828125 L 45.753906 -9.128906 L -5.34375 -9.128906 L 20.707031 -25.828125 L 63.789062 -80.375 L 29.054688 -137.039062 L 7.902344 -151.957031 L 66.683594 -151.957031 L 52.101562 -139.265625 L 76.925781 -98.746094 L 80.933594 -103.867188 L 60.113281 -137.039062 L 72.472656 -148.839844 L 74.476562 -146.949219 L 63.789062 -137.039062 L 82.714844 -106.09375 L 106.871094 -137.039062 L 92.957031 -151.957031 Z M 145.945312 -143.496094 L 124.238281 -130.695312 L 92.734375 -89.839844 L 131.140625 -26.382812 L 158.304688 0 L 89.171875 0 L 87.167969 -3.003906 L 151.179688 -3.003906 L 128.578125 -24.9375 L 89.171875 -89.839844 L 122.234375 -132.585938 L 144.277344 -145.722656 Z M 145.945312 -143.496094 "/></g></g></g><g fill="#ffa500" fill-opacity="1"><g transform="translate(454.679983, 416.267944)"><g><path d="M 192.589844 -190.140625 C 182.273438 -178.785156 174.5 -167.46875 169.269531 -156.1875 C 164.035156 -144.90625 157.859375 -126.242188 150.734375 -100.191406 L 131.472656 -30.058594 L 133.699219 -21.375 L 147.394531 -9.128906 L 96.628906 -9.128906 L 111.214844 -21.375 L 91.507812 -92.734375 L 72.359375 -22.933594 L 91.507812 0 L 34.621094 0 L 32.394531 -3.003906 L 85.386719 -3.003906 L 68.6875 -22.265625 L 89.726562 -98.410156 L 86.054688 -111.660156 L 63.230469 -28.277344 L 65.011719 -21.375 L 78.039062 -9.128906 L 27.164062 -9.128906 L 42.304688 -21.375 L 9.90625 -137.929688 L -6.789062 -151.957031 L 47.648438 -151.957031 L 32.394531 -137.929688 L 57.890625 -46.199219 L 61.785156 -59.667969 L 40.300781 -136.261719 L 50.429688 -145.277344 L 52.992188 -143.496094 L 43.75 -135.257812 L 63.230469 -65.234375 L 87.054688 -151.957031 L 97.519531 -151.957031 L 126.464844 -47.089844 L 130.027344 -59.667969 L 104.421875 -151.957031 L 107.539062 -151.957031 L 131.472656 -65.234375 L 141.9375 -102.863281 C 148.46875 -126.464844 151.734375 -141.828125 151.734375 -148.953125 C 151.734375 -156.894531 148.023438 -163.128906 140.601562 -167.65625 C 149.285156 -170.402344 158.601562 -174.148438 168.546875 -178.898438 C 178.488281 -183.648438 185.910156 -187.914062 190.808594 -191.699219 Z M 199.269531 -181.679688 C 190.363281 -171.886719 183.035156 -160.828125 177.285156 -148.507812 C 171.53125 -136.1875 165.652344 -118.96875 159.640625 -96.851562 L 139.933594 -24.9375 L 161.308594 0 L 104.199219 0 L 101.640625 -3.003906 L 154.519531 -3.003906 L 136.484375 -23.824219 L 156.96875 -98.410156 C 163.054688 -120.527344 168.878906 -137.542969 174.445312 -149.453125 C 180.011719 -161.363281 187.433594 -172.738281 196.710938 -183.574219 Z M 199.269531 -181.679688 "/></g></g></g><g fill="#ffa500" fill-opacity="1"><g transform="translate(634.802952, 416.267944)"><g><path d="M 4.5625 -151.957031 L 57.332031 -151.957031 L 42.414062 -136.816406 L 42.414062 -20.929688 L 56.441406 -9.128906 L 4.5625 -9.128906 L 20.039062 -21.929688 L 20.039062 -138.042969 Z M 62.339844 -145.613281 L 50.988281 -134.367188 L 50.988281 -20.929688 L 69.6875 0 L 11.800781 0 L 9.015625 -3.003906 L 63.121094 -3.003906 L 47.871094 -19.816406 L 47.871094 -135.371094 L 60.449219 -147.839844 Z M 62.339844 -145.613281 "/></g></g></g><g fill="#ffa500" fill-opacity="1"><g transform="translate(704.492043, 416.267944)"><g><path d="M 128.691406 -151.957031 C 128.023438 -150.695312 127.578125 -149.84375 127.355469 -149.398438 L 119.785156 -136.039062 C 117.1875 -131.289062 114.777344 -125.351562 112.550781 -118.226562 L 112.328125 -117.671875 L 111.214844 -118.449219 L 110.878906 -119.894531 C 108.726562 -128.355469 105.664062 -134.21875 101.695312 -137.484375 C 97.722656 -140.75 91.65625 -142.382812 83.492188 -142.382812 C 80.152344 -142.382812 76.8125 -142.234375 73.472656 -141.9375 L 72.136719 -141.9375 L 72.136719 -21.261719 L 85.273438 -9.128906 L 34.398438 -9.128906 L 49.984375 -22.152344 L 49.984375 -132.921875 L 42.082031 -133.03125 C 34.4375 -133.03125 29 -131.53125 25.773438 -128.523438 C 22.542969 -125.519531 20.632812 -120.230469 20.039062 -112.660156 L 17.144531 -112.660156 C 17.960938 -121.34375 20.207031 -127.390625 23.878906 -130.804688 C 27.554688 -134.21875 33.621094 -135.925781 42.082031 -135.925781 L 48.761719 -135.816406 L 49.984375 -135.816406 L 49.984375 -141.269531 C 46.199219 -141.714844 42.601562 -141.9375 39.1875 -141.9375 C 29.613281 -141.9375 22.710938 -139.992188 18.480469 -136.09375 C 14.25 -132.199219 11.910156 -125.609375 11.464844 -116.335938 L 10.128906 -116.335938 C 6.9375 -126.648438 2.003906 -138.152344 -4.675781 -150.84375 L -5.34375 -151.957031 Z M 135.703125 -144.945312 C 130.582031 -138.414062 125.203125 -127.578125 119.5625 -112.4375 L 119.117188 -111.324219 L 116.667969 -113.441406 L 117.003906 -114.441406 C 122.492188 -129.804688 127.800781 -140.492188 132.921875 -146.503906 L 133.476562 -147.171875 Z M 105.980469 -127.578125 C 100.265625 -131.289062 93.585938 -133.144531 85.941406 -133.144531 C 84.234375 -133.144531 82.453125 -133.03125 80.597656 -132.808594 L 81.042969 -20.929688 L 98.746094 0 L 41.859375 0 L 39.296875 -3.003906 L 92.621094 -3.003906 L 77.703125 -20.039062 L 77.703125 -136.039062 L 83.714844 -136.148438 C 90.914062 -136.148438 96.015625 -135.574219 99.023438 -134.425781 C 102.027344 -133.273438 104.347656 -130.992188 105.980469 -127.578125 Z M 105.980469 -127.578125 "/></g></g></g><g fill="#ffa500" fill-opacity="1"><g transform="translate(836.411516, 416.267944)"><g><path d="M 7.234375 -151.957031 L 59.558594 -151.957031 L 44.417969 -137.152344 L 44.417969 -89.058594 C 46.125 -88.761719 48.128906 -88.539062 50.429688 -88.390625 L 50.429688 -136.039062 L 62.5625 -148.0625 L 64.789062 -146.058594 L 53.324219 -134.703125 L 53.324219 -88.28125 L 57 -87.945312 C 62.710938 -87.425781 68.242188 -87.167969 73.585938 -87.167969 C 81.304688 -87.167969 87.945312 -87.539062 93.511719 -88.28125 L 93.511719 -139.488281 L 79.929688 -151.957031 L 131.363281 -151.957031 L 116 -137.152344 L 116 -21.152344 L 129.46875 -9.128906 L 78.261719 -9.128906 L 93.511719 -22.152344 L 93.511719 -69.355469 C 87.277344 -67.871094 80.859375 -67.128906 74.253906 -67.128906 C 68.019531 -67.128906 61.5625 -67.460938 54.882812 -68.128906 L 53.324219 -68.242188 L 53.324219 -21.152344 L 71.691406 0 L 14.136719 0 L 11.242188 -3.003906 L 65.570312 -3.003906 L 50.429688 -19.59375 L 50.429688 -70.800781 L 53.660156 -70.578125 C 63.453125 -69.835938 70.542969 -69.464844 74.921875 -69.464844 C 82.046875 -69.464844 88.242188 -70.429688 93.511719 -72.359375 L 93.511719 -76.367188 C 86.535156 -75.328125 78.410156 -74.808594 69.132812 -74.808594 C 64.160156 -74.808594 60.523438 -74.921875 58.222656 -75.144531 L 46.980469 -76.144531 C 46.535156 -76.21875 45.679688 -76.292969 44.417969 -76.367188 L 44.417969 -21.152344 L 58.667969 -9.128906 L 7.234375 -9.128906 L 22.152344 -22.152344 L 22.152344 -70.800781 C 15.917969 -70.800781 10.945312 -68.351562 7.234375 -63.453125 L 4.898438 -64.566406 C 9.203125 -69.984375 14.953125 -72.992188 22.152344 -73.585938 L 22.152344 -77.703125 C 13.839844 -77.703125 7.273438 -74.550781 2.449219 -68.242188 L 0.777344 -69.355469 C 5.15625 -80.042969 12.28125 -86.351562 22.152344 -88.28125 L 22.152344 -138.375 Z M 136.039062 -145.722656 L 124.683594 -134.703125 L 124.683594 -21.152344 L 143.164062 0 L 85.386719 0 L 82.601562 -3.003906 L 136.816406 -3.003906 L 121.898438 -19.816406 L 121.898438 -135.816406 L 134.257812 -148.0625 Z M 136.039062 -145.722656 "/></g></g></g><g fill="#ffffff" fill-opacity="1"><g transform="translate(1016.486667, 416.267944)"><g><path d="M 125.238281 -151.957031 L 123.457031 -149.84375 C 115.890625 -140.566406 109.878906 -129.914062 105.425781 -117.894531 C 104.683594 -119.597656 104.125 -120.859375 103.753906 -121.675781 C 99.671875 -130.582031 95.292969 -136.335938 90.617188 -138.933594 C 85.941406 -141.53125 77.554688 -142.828125 65.457031 -142.828125 C 59.890625 -142.828125 53.214844 -142.644531 45.421875 -142.273438 L 45.421875 -91.0625 L 52.546875 -91.0625 L 52.546875 -136.371094 C 58.1875 -136.890625 63.566406 -137.152344 68.6875 -137.152344 C 78.113281 -137.152344 85.050781 -136.148438 89.503906 -134.144531 C 93.957031 -132.140625 97.929688 -128.246094 101.417969 -122.457031 C 100.378906 -123.199219 99.636719 -123.753906 99.191406 -124.125 C 93.179688 -128.875 88.835938 -131.695312 86.164062 -132.585938 C 83.492188 -133.476562 78.222656 -133.921875 70.355469 -133.921875 C 67.980469 -133.921875 63.75 -133.773438 57.667969 -133.476562 L 55.328125 -133.367188 L 55.328125 -91.0625 L 75.8125 -91.0625 L 90.171875 -110.769531 L 90.171875 -62.785156 L 75.8125 -81.378906 L 45.421875 -81.378906 L 45.421875 -18.925781 L 52.546875 -18.925781 L 52.546875 -76.144531 L 76.703125 -76.144531 L 79.597656 -73.25 L 55.328125 -73.25 L 55.328125 -18.925781 C 70.46875 -18.925781 81.230469 -20 87.613281 -22.152344 C 93.996094 -24.304688 99.003906 -28.535156 102.640625 -34.84375 L 108.542969 -44.976562 C 108.765625 -45.421875 109.210938 -46.238281 109.878906 -47.425781 C 111.808594 -39.261719 114.199219 -32.730469 117.058594 -27.832031 C 119.914062 -22.933594 124.644531 -17.21875 131.25 -10.6875 L 6.457031 -10.6875 L 23.378906 -23.601562 L 23.378906 -73.25 C 17.144531 -72.507812 11.503906 -70.578125 6.457031 -67.460938 L 4.898438 -69.800781 C 9.425781 -73.066406 15.585938 -75.179688 23.378906 -76.144531 L 23.378906 -81.378906 C 22.117188 -81.527344 21.226562 -81.601562 20.707031 -81.601562 C 13.136719 -81.601562 6.234375 -78.816406 0 -73.25 C 3.414062 -85.125 11.207031 -91.0625 23.378906 -91.0625 L 23.378906 -138.597656 L 6.457031 -151.957031 Z M 130.582031 -144.164062 L 129.804688 -143.164062 C 120.75 -130.992188 114.703125 -120.785156 111.660156 -112.550781 L 109.765625 -114.886719 C 114.738281 -126.390625 121.15625 -136.929688 129.023438 -146.503906 Z M 97.855469 -107.09375 L 97.855469 -57.890625 L 95.070312 -59.335938 L 95.070312 -108.542969 Z M 143.941406 -10.019531 L 138.152344 0 L 16.585938 0 L 14.804688 -3.003906 L 136.707031 -3.003906 L 140.492188 -10.019531 C 129.804688 -19.890625 122.269531 -30.429688 117.894531 -41.636719 L 121.453125 -40.300781 C 125.535156 -30.800781 132.4375 -21.300781 142.160156 -11.800781 Z M 143.941406 -10.019531 "/></g></g></g><g fill="#ffffff" fill-opacity="1"><g transform="translate(1158.202692, 416.267944)"><g><path d="M 4.5625 -151.957031 L 57.777344 -151.957031 L 42.082031 -136.707031 L 42.082031 -17.699219 L 42.972656 -17.699219 L 46.980469 -17.367188 L 47.980469 -17.367188 L 47.980469 -135.59375 L 60.003906 -147.726562 L 61.5625 -145.277344 L 50.765625 -134.257812 L 50.765625 -17.367188 C 54.105469 -17.070312 57.296875 -16.921875 60.335938 -16.921875 C 72.136719 -16.921875 81.0625 -19.539062 87.113281 -24.769531 C 93.160156 -30 97.222656 -38.628906 99.300781 -50.652344 C 106.277344 -30.390625 113.441406 -16.550781 120.785156 -9.128906 L 4.5625 -9.128906 L 19.925781 -21.707031 L 19.925781 -137.820312 Z M 131.695312 -10.019531 L 126.6875 0 L 10.464844 0 L 7.679688 -3.003906 L 125.460938 -3.003906 L 128.691406 -10.019531 C 120.527344 -20.039062 113.996094 -31.207031 109.097656 -43.527344 L 108.652344 -44.753906 L 112.214844 -43.417969 L 112.996094 -41.523438 C 117.96875 -30.539062 123.902344 -20.410156 130.804688 -11.132812 Z M 131.695312 -10.019531 "/></g></g></g></svg>